<?xml version="1.0" encoding="UTF-8"?>
<svg version="1.1" viewBox="0 0 232 156" xmlns="http://www.w3.org/2000/svg" xmlns:xlink="http://www.w3.org/1999/xlink">
<defs>
<rect id="b" width="105.5" height="46" rx="10"/>
</defs>
<g fill="none" fill-rule="evenodd">
<g transform="translate(-1)">
<path d="m3.792 41.936c0 12.416 10.496 13.76 17.984 14.784 4.224 0.576 7.488 1.28 7.488 3.776 0 2.752-2.56 3.648-6.848 3.648-3.584 0-6.08-1.152-7.232-3.392-0.96-1.856-1.856-2.048-3.776-1.408l-6.016 2.176c-1.856 0.704-2.432 1.6-1.728 3.52 2.432 6.656 9.088 9.92 18.624 9.92 11.328 0 19.84-5.184 19.84-14.592 0-12.096-9.6-13.888-17.024-14.912-4.608-0.576-8.384-1.152-8.384-3.904 0-2.24 1.728-3.328 6.08-3.328 2.944 0 5.248 0.896 6.464 3.328 1.024 1.856 1.728 2.112 3.456 1.344l6.4-2.752c1.92-0.768 2.432-1.728 1.536-3.584-3.008-6.144-8.384-8.96-17.856-8.96-12.224 0-19.008 5.888-19.008 14.336zm44.816-10.816v40.32c0 1.92 0.64 2.56 2.56 2.56h7.552c1.92 0 2.56-0.64 2.56-2.56v-40.32c0-1.92-0.64-2.56-2.56-2.56h-7.552c-1.92 0-2.56 0.64-2.56 2.56zm58.856 40.192l-13.312-20.48 12.672-19.712c0.896-1.408 0.512-2.56-1.28-2.56h-8.192c-2.944 0-3.712 0.128-4.928 2.24l-5.696 9.856-5.76-9.856c-1.216-1.984-1.984-2.24-5.312-2.24h-7.616c-1.856 0-2.24 1.152-1.344 2.56l12.544 19.712-13.12 20.48c-1.024 1.536-0.576 2.688 1.344 2.688h7.872c3.456 0 4.096-0.384 5.312-2.368l5.888-10.496 6.08 10.496c1.216 2.176 1.984 2.368 5.248 2.368h8.256c1.984 0 2.368-1.28 1.344-2.688zm-74.696 11.248h-26.816c-2.048 0-2.752 0.704-2.752 2.688v40.064c0 1.984 0.704 2.688 2.752 2.688h7.232c2.048 0 2.688-0.704 2.688-2.688v-12.928h13.504c2.048 0 2.752-0.704 2.752-2.752v-5.76c0-1.984-0.704-2.688-2.752-2.688h-13.504v-7.424h16.896c2.048 0 2.752-0.704 2.752-2.752v-5.76c0-1.984-0.704-2.688-2.752-2.688zm7.232 2.56v40.32c0 1.92 0.64 2.56 2.56 2.56h7.552c1.92 0 2.56-0.64 2.56-2.56v-40.32c0-1.92-0.64-2.56-2.56-2.56h-7.552c-1.92 0-2.56 0.64-2.56 2.56zm54.72 16.768h-16.192c-1.984 0-2.688 0.704-2.688 2.752v4.8c0 2.048 0.704 2.688 2.688 2.688h6.144v1.28c0 2.752-2.624 4.352-6.912 4.352-5.056 0-7.04-2.176-7.04-6.656v-11.648c0-4.48 1.984-6.656 7.04-6.656 3.584 0 5.504 1.28 6.656 4.16 0.704 1.984 1.472 2.368 3.456 1.728l6.848-2.432c1.92-0.64 2.368-1.6 1.728-3.456-2.688-7.168-8.832-11.2-18.688-11.2-12.608 0-19.712 6.848-19.712 17.92v11.52c0 11.072 7.104 17.92 19.712 17.92s19.648-6.848 19.648-15.872v-8.448c0-2.048-0.64-2.752-2.688-2.752zm20.096 9.984v-26.624c0-1.984-0.704-2.688-2.752-2.688h-7.232c-2.048 0-2.688 0.704-2.688 2.688v26.048c0 10.752 6.656 17.664 19.264 17.664 12.672 0 19.328-6.912 19.328-17.664v-26.048c0-1.984-0.704-2.688-2.752-2.688h-7.232c-2.048 0-2.688 0.704-2.688 2.688v26.624c0 3.776-2.24 5.888-6.656 5.888s-6.592-2.112-6.592-5.888zm52.928-29.312c9.664 0 15.936 5.504 15.936 15.424 0 6.272-2.56 10.752-6.912 13.184 0.64 0.832 1.216 1.728 1.728 2.752l5.76 10.944c0.896 1.728 0.448 3.136-1.664 3.136h-6.912c-3.392 0-4.864-0.832-5.888-3.072l-4.096-8.768c-1.088-2.176-2.176-3.264-4.8-3.264h-1.472v12.416c0 1.984-0.64 2.688-2.688 2.688h-7.232c-2.048 0-2.752-0.704-2.752-2.688v-40.064c0-1.984 0.704-2.688 2.752-2.688h18.24zm2.816 15.36c0-2.56-1.472-4.16-4.224-4.16h-6.912v8.448h6.912c2.688 0 4.224-1.664 4.224-4.288zm48.064-15.36h-26.816c-2.048 0-2.752 0.704-2.752 2.688v40.064c0 1.984 0.704 2.688 2.752 2.688h27.392c1.984 0 2.688-0.704 2.688-2.688v-5.824c0-2.048-0.704-2.688-2.688-2.688h-17.472v-6.144h13.504c2.048 0 2.752-0.704 2.752-2.752v-5.76c0-1.984-0.704-2.688-2.752-2.688h-13.504v-5.696h16.896c2.048 0 2.752-0.704 2.752-2.752v-5.76c0-1.984-0.704-2.688-2.752-2.688z" fill="#093e46"/>
<path d="m1.672 142.98c0 4.656 3.936 5.16 6.744 5.544 1.584 0.216 2.808 0.48 2.808 1.416 0 1.032-0.96 1.368-2.568 1.368-1.344 0-2.28-0.432-2.712-1.272-0.36-0.696-0.696-0.768-1.416-0.528l-2.256 0.816c-0.696 0.264-0.912 0.6-0.648 1.32 0.912 2.496 3.408 3.72 6.984 3.72 4.248 0 7.44-1.944 7.44-5.472 0-4.536-3.6-5.208-6.384-5.592-1.728-0.216-3.144-0.432-3.144-1.464 0-0.84 0.648-1.248 2.28-1.248 1.104 0 1.968 0.336 2.424 1.248 0.384 0.696 0.648 0.792 1.296 0.504l2.4-1.032c0.72-0.288 0.912-0.648 0.576-1.344-1.128-2.304-3.144-3.36-6.696-3.36-4.584 0-7.128 2.208-7.128 5.376zm28.982-5.016h-11.88c-0.768 0-1.008 0.264-1.008 1.008v2.16c0 0.768 0.24 1.032 1.008 1.032h3.576v11.832c0 0.744 0.24 1.008 1.008 1.008h2.712c0.768 0 1.032-0.264 1.032-1.008v-11.832h3.552c0.768 0 1.032-0.264 1.032-1.032v-2.16c0-0.744-0.264-1.008-1.032-1.008zm2.822 6.36c0-4.152 2.64-6.72 7.392-6.72 4.728 0 7.368 2.568 7.368 6.72v4.32c0 4.152-2.64 6.72-7.368 6.72-4.752 0-7.392-2.568-7.392-6.72v-4.32zm10.008-0.216c0-1.512-0.96-2.304-2.616-2.304-1.68 0-2.64 0.792-2.64 2.304v4.752c0 1.512 0.96 2.304 2.64 2.304 1.656 0 2.616-0.792 2.616-2.304v-4.752zm7.31 0.216v4.32c0 4.152 2.664 6.72 7.392 6.72 3.696 0 6-1.512 7.008-4.2 0.24-0.696 0.072-1.056-0.648-1.296l-2.568-0.912c-0.72-0.264-1.008-0.096-1.296 0.648-0.384 1.032-1.152 1.56-2.496 1.56-1.896 0-2.64-0.816-2.64-2.496v-4.368c0-1.68 0.744-2.496 2.64-2.496 1.344 0 2.064 0.48 2.496 1.56 0.264 0.744 0.552 0.864 1.296 0.648l2.568-0.912c0.72-0.24 0.888-0.6 0.648-1.296-1.008-2.688-3.312-4.2-7.008-4.2-4.728 0-7.392 2.568-7.392 6.72zm31.238 9.504l-3.168-6c-0.408-0.816-0.864-1.416-1.464-1.848l4.368-6.96c0.384-0.624 0.144-1.056-0.576-1.056h-2.76c-1.248 0-1.464 0.144-1.92 0.888l-3.456 5.448h-0.528v-5.328c0-0.744-0.24-1.008-1.008-1.008h-2.712c-0.768 0-1.032 0.264-1.032 1.008v15.024c0 0.744 0.264 1.008 1.032 1.008h2.712c0.768 0 1.008-0.264 1.008-1.008v-5.496h0.432c0.912 0 1.248 0.432 1.632 1.2l2.088 4.296c0.408 0.84 0.864 1.008 2.136 1.008h2.592c0.792 0 0.96-0.528 0.624-1.176zm15.34-15.864c3.744 0 6.192 2.184 6.192 6 0 3.792-2.424 5.928-6.144 5.928h-2.952v4.104c0 0.744-0.24 1.008-1.008 1.008h-2.712c-0.768 0-1.032-0.264-1.032-1.008v-15.024c0-0.744 0.264-1.008 1.032-1.008h6.624zm-0.528 7.728c1.128 0 1.8-0.696 1.8-1.752s-0.672-1.776-1.8-1.776h-2.376v3.528h2.376zm8.942-1.368c0-4.152 2.64-6.72 7.392-6.72 4.728 0 7.368 2.568 7.368 6.72v4.32c0 4.152-2.64 6.72-7.368 6.72-4.752 0-7.392-2.568-7.392-6.72v-4.32zm10.008-0.216c0-1.512-0.96-2.304-2.616-2.304-1.68 0-2.64 0.792-2.64 2.304v4.752c0 1.512 0.96 2.304 2.64 2.304 1.656 0 2.616-0.792 2.616-2.304v-4.752zm15.59-6.144c3.624 0 5.976 2.064 5.976 5.784 0 2.352-0.96 4.032-2.592 4.944 0.24 0.312 0.456 0.648 0.648 1.032l2.16 4.104c0.336 0.648 0.168 1.176-0.624 1.176h-2.592c-1.272 0-1.824-0.312-2.208-1.152l-1.536-3.288c-0.408-0.816-0.816-1.224-1.8-1.224h-0.552v4.656c0 0.744-0.24 1.008-1.008 1.008h-2.712c-0.768 0-1.032-0.264-1.032-1.008v-15.024c0-0.744 0.264-1.008 1.032-1.008h6.84zm1.056 5.76c0-0.96-0.552-1.56-1.584-1.56h-2.592v3.168h2.592c1.008 0 1.584-0.624 1.584-1.608zm19.622-5.76h-11.88c-0.768 0-1.008 0.264-1.008 1.008v2.16c0 0.768 0.24 1.032 1.008 1.032h3.576v11.832c0 0.744 0.24 1.008 1.008 1.008h2.712c0.768 0 1.032-0.264 1.032-1.008v-11.832h3.552c0.768 0 1.032-0.264 1.032-1.032v-2.16c0-0.744-0.264-1.008-1.032-1.008zm14.534 0h-10.056c-0.768 0-1.032 0.264-1.032 1.008v15.024c0 0.744 0.264 1.008 1.032 1.008h2.712c0.768 0 1.008-0.264 1.008-1.008v-4.848h5.064c0.768 0 1.032-0.264 1.032-1.032v-2.16c0-0.744-0.264-1.008-1.032-1.008h-5.064v-2.784h6.336c0.768 0 1.032-0.264 1.032-1.032v-2.16c0-0.744-0.264-1.008-1.032-1.008zm3.086 6.36c0-4.152 2.64-6.72 7.392-6.72 4.728 0 7.368 2.568 7.368 6.72v4.32c0 4.152-2.64 6.72-7.368 6.72-4.752 0-7.392-2.568-7.392-6.72v-4.32zm10.008-0.216c0-1.512-0.96-2.304-2.616-2.304-1.68 0-2.64 0.792-2.64 2.304v4.752c0 1.512 0.96 2.304 2.64 2.304 1.656 0 2.616-0.792 2.616-2.304v-4.752zm11.462-6.144h-2.712c-0.768 0-1.032 0.264-1.032 1.008v15.024c0 0.744 0.264 1.008 1.032 1.008h9.504c0.744 0 1.008-0.264 1.008-1.008v-2.184c0-0.768-0.264-1.008-1.008-1.008h-5.784v-11.832c0-0.744-0.24-1.008-1.008-1.008zm10.214 0.96v15.12c0 0.72 0.24 0.96 0.96 0.96h2.832c0.72 0 0.96-0.24 0.96-0.96v-15.12c0-0.72-0.24-0.96-0.96-0.96h-2.832c-0.72 0-0.96 0.24-0.96 0.96zm7.718 5.4c0-4.152 2.64-6.72 7.392-6.72 4.728 0 7.368 2.568 7.368 6.72v4.32c0 4.152-2.64 6.72-7.368 6.72-4.752 0-7.392-2.568-7.392-6.72v-4.32zm10.008-0.216c0-1.512-0.96-2.304-2.616-2.304-1.68 0-2.64 0.792-2.64 2.304v4.752c0 1.512 0.96 2.304 2.64 2.304 1.656 0 2.616-0.792 2.616-2.304v-4.752z" fill="#093e46"/>
<circle cx="55" cy="11" r="11" fill="#FFD100"/>
<path d="m51.448 8.2473h-4.0107c-0.25928 0-0.3403 0.089127-0.3403 0.3403v0.72922c0 0.25928 0.081024 0.3484 0.3403 0.3484h1.2073v3.9945c0 0.25118 0.081024 0.3403 0.3403 0.3403h0.91557c0.25928 0 0.3484-0.089127 0.3484-0.3403v-3.9945h1.1992c0.25928 0 0.3484-0.089127 0.3484-0.3484v-0.72922c0-0.25118-0.089127-0.3403-0.3484-0.3403zm5.5828-0.0081024h-0.92368c-0.25118 0-0.3403 0.089127-0.3403 0.3484v1.7906h-1.5719v-1.7906c0-0.25928-0.081024-0.3484-0.3403-0.3484h-0.91557c-0.25928 0-0.3484 0.089127-0.3484 0.3484v5.0721c0 0.25118 0.089127 0.3403 0.3484 0.3403h0.91557c0.25928 0 0.3403-0.089127 0.3403-0.3403v-1.8636h1.5719v1.8636c0 0.25118 0.089127 0.3403 0.3403 0.3403h0.92368c0.25118 0 0.3403-0.089127 0.3403-0.3403v-5.0721c0-0.25928-0.089127-0.3484-0.3403-0.3484zm5.1939 0.0081024h-3.3949c-0.25928 0-0.3484 0.089127-0.3484 0.3403v5.0721c0 0.25118 0.089127 0.3403 0.3484 0.3403h3.4678c0.25118 0 0.3403-0.089127 0.3403-0.3403v-0.73732c0-0.25928-0.089127-0.3403-0.3403-0.3403h-2.212v-0.77783h1.7096c0.25928 0 0.3484-0.089127 0.3484-0.3484v-0.72922c0-0.25118-0.089127-0.3403-0.3484-0.3403h-1.7096v-0.72112h2.139c0.25928 0 0.3484-0.089127 0.3484-0.3484v-0.72922c0-0.25118-0.089127-0.3403-0.3484-0.3403z" fill="#fff"/>
<g transform="translate(116 28)">
<mask id="a" fill="white">
<use xlink:href="#b"/>
</mask>
<use fill="#EEEEEE" fill-opacity=".5" xlink:href="#b"/>
<path d="m3.3818 46l19.879-16.902c6.1336-3.4643 10.756-5.6934 13.867-6.6872s9.1934-2.1845 18.248-3.572l24.342 16.785 31.398-28.312 0.82707 25.263c0.23493 7.1759-5.3918 13.183-12.568 13.418-0.14175 0.0046405-0.28356 0.0069613-0.42538 0.0069613h-95.567z" fill="#FFD100" fill-opacity=".50266" mask="url(#a)"/>
<polyline points="1 43.567 32.979 26.868 56.997 15.868 79.529 30.732 116 -0.98557" mask="url(#a)" stroke="#fff" stroke-width="8"/>
<polyline points="1 43.567 32.979 26.868 56.997 15.868 79.529 30.732 114.01 0.63574" mask="url(#a)" stroke="#FFD100" stroke-width="3"/>
</g>
<path d="m195.53 58.732l34.481-30.097" stroke="#FFD100" stroke-width="3"/>
<g transform="translate(227.95 28.915) rotate(30) translate(-7 -5)" fill="#FFD100">
<rect transform="translate(5.7679 3.8301) rotate(-30) translate(-5.7679 -3.8301)" x=".76795" y="2.3301" width="10" height="3" rx="1.5"/>
<rect transform="translate(10.768 5.0981) scale(-1) rotate(60) translate(-10.768 -5.0981)" x="5.7679" y="3.5981" width="10" height="3" rx="1.5"/>
</g>
</g>
</g>
</svg>
